<svg xmlns="http://www.w3.org/2000/svg" width="138" height="132" fill="none" viewBox="0 0 138 132">
    <path fill="#fff" d="M132.797.127c-2.38.452-5.761 2.012-11.608 5.358-17.11 9.79-32.25 23.852-43.416 40.313-5.61 8.274-10.186 17.02-13.837 26.467-1.464 3.798-3.305 9.575-4.34 13.642l-.117.463-.991-.85c-8.905-7.607-24.605-19.829-26.392-20.55-1.723-.699-4.857-.269-7.44 1.023-1.229.624-1.8 1-2.5 1.678-.667.645-.871 1.108-.656 1.55.086.182 1.066.989 2.563 2.108 5.6 4.164 9.325 7.047 13.89 10.716 6.3 5.067 11.242 9.274 18.823 16.03 1.324 1.173 1.658 1.345 2.972 1.474 2.336.237 6.643-1.13 8.42-2.69.603-.516.754-.806.905-1.742 2.132-12.868 5.674-23.928 11.317-35.343 4.2-8.489 8.743-15.59 14.752-23.067 8.043-10.006 17.067-18.268 27.619-25.305 3.36-2.248 6.44-4.024 11.404-6.606 1.776-.925 2.261-1.226 2.767-1.732C138.17 1.827 138.02.86 136.49.278c-.786-.302-2.53-.366-3.693-.151z"/>
    <path fill="#fff" d="M57.335 11.918c-4.135.151-7.99.689-12.06 1.711-8.83 2.206-16.733 6.23-23.958 12.222-1.81 1.496-5.826 5.509-7.322 7.305C6.014 42.764 1.47 53.598.19 66.025c-.226 2.227-.258 8.531-.054 10.543.388 3.787.872 6.65 1.658 9.737C6.026 103.003 17.516 117.247 33 124.994c6.88 3.432 13.535 5.315 21.697 6.132 2.132.216 8.27.183 10.553-.043 7.559-.785 13.923-2.56 20.491-5.723 10.326-4.982 19.328-13.201 25.24-23.035 4.813-8.005 7.505-16.332 8.399-25.972.194-2.184.172-7.822-.065-10.113-.99-10.092-4.167-19.15-9.626-27.489-1.82-2.797-3.521-4.949-4.081-5.175-.765-.323-1.723-.054-2.197.613-.28.388-.398 1.291-.226 1.71.065.152.528.797 1.044 1.453 1.185 1.507 3.134 4.422 4.189 6.284 7.042 12.275 9.196 26.606 6.084 40.377-2.423 10.738-8.259 20.894-16.335 28.425-12.921 12.05-30.247 17.322-47.605 14.471-9.798-1.603-18.854-5.778-26.823-12.351-1.518-1.248-5.663-5.38-6.88-6.843-3.123-3.755-5.363-7.198-7.44-11.404-3.102-6.294-4.825-12.362-5.557-19.635-.226-2.173-.248-7.564-.054-9.683.894-9.683 3.898-18.376 9.024-26.122 9.303-14.084 24.152-23.186 40.842-25.036 4.329-.484 9.745-.388 13.998.226 6.03.882 11.285 2.506 17.014 5.271 1.389.678 2.444 1.12 2.638 1.12.495-.011 1.174-.366 1.464-.765.205-.3.259-.494.259-1.075 0-1.14-.172-1.291-2.897-2.625-9.088-4.433-18.553-6.434-28.815-6.068z"/>
</svg>
